<svg version="1.1" id="Layer_1" xmlns="http://www.w3.org/2000/svg" xmlns:xlink="http://www.w3.org/1999/xlink" x="0px" y="0px"
	 width="100%" viewBox="0 0 1024 576" enable-background="new 0 0 1024 576" xml:space="preserve">
<path fill="#000000" opacity="1.000000" stroke="none" 
	d="
M1.000000,265.000000 
	C1.000000,216.312439 1.000000,167.624878 1.466257,118.417007 
	C46.087215,117.924576 90.241974,117.925003 134.396545,118.015274 
	C139.884796,118.026489 145.374435,118.475594 150.857971,118.811035 
	C152.104614,118.887291 153.612167,118.690849 154.354828,120.421753 
	C153.203110,122.670151 151.761444,124.857330 153.046219,127.786385 
	C155.070755,132.402008 152.897263,135.428101 148.723694,137.427826 
	C143.424683,139.966797 137.751877,141.326736 132.104416,142.789017 
	C130.187683,143.285294 127.891953,143.777084 127.783035,146.262283 
	C127.672333,148.788376 129.967529,149.428986 131.837967,150.004807 
	C150.558990,155.768188 169.511932,156.363770 188.599518,152.166611 
	C191.391174,151.552750 194.460602,150.782883 195.998993,147.214706 
	C193.488953,144.868668 190.586975,143.426392 187.440094,142.310562 
	C185.093567,141.478500 182.638931,140.744568 180.538422,139.464737 
	C174.566254,135.825897 174.545792,132.509613 180.387238,128.730881 
	C183.458130,126.744377 186.924149,125.271385 189.057587,122.128159 
	C190.626389,119.816803 192.790787,119.114616 195.419754,118.827698 
	C204.223190,117.866920 213.053116,117.923851 221.881897,117.924103 
	C463.981598,117.930939 706.081299,117.923515 948.181030,118.003128 
	C970.835266,118.010574 993.489624,118.564774 1016.143250,118.908920 
	C1018.204407,118.940224 1020.731506,118.355934 1021.520142,121.261131 
	C1021.886230,122.609581 1021.594421,124.068779 1020.336975,124.828888 
	C1017.874634,126.317490 1015.875183,125.069008 1014.113098,123.350845 
	C1013.013245,122.278343 1011.858521,121.253128 1010.289124,121.174812 
	C999.954163,120.659096 989.630798,120.591034 979.498718,123.126297 
	C976.533630,123.868225 974.753540,125.679665 975.985413,129.025024 
	C977.431824,132.952805 975.622742,135.343216 972.411560,137.262344 
	C968.799377,139.421112 964.840454,140.692856 960.920776,142.101257 
	C959.236633,142.706360 957.096802,143.168457 956.860168,145.335114 
	C956.579346,147.907211 958.941467,148.540695 960.690247,149.310898 
	C978.740479,157.260727 997.429993,159.649597 1016.820740,155.522720 
	C1019.536255,154.944809 1021.997253,153.035934 1025.000000,154.000000 
	C1025.000000,198.354233 1025.000000,242.708450 1024.750244,287.336273 
	C1021.846863,285.481720 1019.394226,287.642029 1016.905579,288.052216 
	C1006.020325,289.846283 994.986572,289.154846 984.037354,290.225861 
	C967.358582,291.857330 951.729309,296.220123 937.270935,304.714508 
	C923.539612,312.781738 918.873535,331.791534 926.970154,345.645599 
	C929.765991,350.429535 934.146484,353.958435 936.589111,358.984772 
	C939.341003,364.647491 938.347717,367.281921 932.099609,368.527466 
	C928.033813,369.337982 923.813049,369.342194 919.715393,370.028198 
	C908.586792,371.891266 898.577332,375.512238 892.528259,386.220032 
	C887.118164,395.796814 878.874023,402.057343 868.042786,404.471771 
	C860.007507,406.262970 852.560669,409.458771 845.083923,412.794891 
	C838.365479,415.792664 832.325562,420.040222 825.668335,422.974304 
	C818.369995,426.190979 812.828857,431.005035 808.046326,437.198639 
	C805.133301,440.971100 802.323914,444.931427 797.867493,447.333435 
	C782.546387,455.591675 765.498474,458.359497 748.909363,462.151917 
	C730.885132,466.272400 712.157471,465.951080 693.836121,468.399384 
	C683.213745,469.818909 672.661072,470.119110 661.958313,469.609680 
	C623.717102,467.789337 585.638672,462.659729 547.247009,463.897461 
	C545.416565,463.956512 543.581116,463.923309 541.749451,463.876404 
	C517.644592,463.258972 493.946442,460.329071 471.109283,452.024689 
	C453.933014,445.778870 437.109467,438.319977 418.526428,436.786224 
	C411.071686,436.170898 403.666168,435.075775 396.331085,433.347900 
	C385.603119,430.820801 376.919434,423.930084 366.754120,420.199371 
	C355.679108,416.134735 345.060791,410.721252 333.831818,407.213226 
	C324.652771,404.345642 315.202942,402.168396 306.012970,399.240540 
	C294.504608,395.574036 283.467865,390.994171 275.979614,380.669891 
	C274.737823,378.957764 273.035736,377.364990 271.199951,376.333771 
	C261.000366,370.604065 253.213440,362.363922 245.627151,353.606323 
	C236.325348,342.868286 234.208694,331.132721 238.063538,317.905701 
	C239.040833,314.552399 240.314789,311.283813 241.497131,307.992371 
	C242.803238,304.356354 242.832718,300.795135 240.885559,297.376495 
	C238.316132,292.865265 236.390320,288.070679 234.802261,283.159027 
	C233.181046,278.144836 229.669464,275.459167 224.733398,274.571808 
	C221.967041,274.074524 219.095459,273.851288 216.286942,273.949951 
	C196.588623,274.641907 177.586777,270.287109 158.585129,266.034576 
	C148.368881,263.748138 138.031784,262.440552 127.927704,265.355499 
	C113.434029,269.536774 98.672150,271.926453 83.758713,273.475616 
	C63.467113,275.583435 43.396423,274.029114 24.140793,267.055542 
	C16.880676,264.426239 9.330612,267.131683 2.306397,264.343994 
	C2.005162,264.224426 1.441445,264.766266 1.000000,265.000000 
M506.471161,273.967072 
	C508.636597,272.151672 510.640839,270.080566 513.009399,268.587341 
	C515.796021,266.830597 518.257751,266.846222 519.380615,270.879639 
	C521.038025,276.832947 525.254761,278.479858 530.333740,275.017303 
	C533.476807,272.874542 536.193115,270.104553 539.093018,267.606934 
	C540.752258,266.177887 542.374939,264.649078 545.342957,266.430756 
	C544.016296,272.907227 542.651001,279.584290 539.829712,285.736603 
	C538.167664,289.360870 539.301819,290.827271 541.994446,293.109589 
	C545.735352,296.280487 550.454346,295.834930 554.429565,297.697662 
	C559.495728,300.071686 564.634460,301.340393 570.282776,301.375732 
	C574.131165,301.399780 578.388916,300.275269 581.815979,303.206848 
	C585.034241,305.959778 588.671387,306.736603 592.886536,306.695496 
	C601.993774,306.606628 611.033325,306.373779 620.092896,308.978180 
	C625.736633,310.600586 631.003723,313.542694 637.232727,313.672546 
	C656.693298,314.078247 676.144348,314.951324 695.597473,315.686768 
	C698.584167,315.799622 701.559448,316.185577 704.544739,316.368530 
	C709.883789,316.695709 715.219910,316.870056 720.670410,316.228577 
	C720.088318,313.203094 718.348816,312.747009 716.772827,312.513336 
	C712.320251,311.853058 709.616638,309.642731 707.441467,305.477020 
	C705.181946,301.149567 701.561768,297.475647 698.251526,293.770691 
	C695.244202,290.404846 691.420044,288.296509 686.698425,289.373932 
	C680.048950,290.891296 674.630005,284.992981 668.011597,286.436768 
	C667.559265,286.535461 666.821716,285.869904 666.382751,285.403503 
	C660.736145,279.403931 653.610046,275.633423 646.142029,272.651550 
	C642.454346,271.179138 640.932800,267.480927 637.037903,266.063721 
	C629.563416,263.344055 622.493896,259.490051 615.320923,255.974945 
	C612.780151,254.729843 610.457275,252.303192 611.378662,249.647781 
	C613.369568,243.910110 609.251892,241.034851 606.577698,237.561966 
	C604.595703,234.987991 603.004089,232.573715 604.762939,229.462372 
	C606.706116,226.025009 609.953491,225.496155 613.460571,226.497772 
	C620.826477,228.601440 628.260071,230.538925 635.469910,233.097092 
	C641.907104,235.381134 648.164185,238.382507 653.034668,243.346527 
	C655.398315,245.755646 658.097412,246.756378 661.149719,247.775696 
	C672.158142,251.451874 684.670288,250.801392 694.091309,259.095184 
	C694.432068,259.395142 695.017090,259.503113 695.501038,259.542267 
	C706.465088,260.430206 717.143921,262.929626 727.879761,265.147095 
	C737.636353,267.162354 747.475769,268.652924 757.139099,271.267365 
	C766.096436,273.690857 775.300049,275.668091 784.519287,276.562012 
	C802.871643,278.341644 821.126892,280.797577 839.397400,283.180786 
	C841.482178,283.452728 843.582397,284.402161 845.745728,282.136475 
	C844.383301,281.523102 843.282593,280.788300 842.078003,280.520630 
	C819.001343,275.393341 796.091614,269.469879 772.712280,265.784180 
	C769.949768,265.348724 767.950317,264.176819 767.002441,261.623505 
	C765.831421,258.469208 763.478271,257.704865 760.412170,257.307129 
	C753.316956,256.386719 745.460999,255.917343 740.462219,250.581146 
	C735.698914,245.496506 729.079285,245.651993 723.953247,242.194138 
	C723.289856,241.746628 721.973389,242.007431 721.043457,242.255310 
	C712.267151,244.594650 705.645935,241.449585 700.504333,234.360794 
	C699.540833,233.032272 698.326477,230.841232 696.726074,231.729416 
	C692.921143,233.840942 691.463989,231.106491 689.333191,229.119186 
	C686.307068,226.296844 683.102722,223.662552 679.928040,221.003494 
	C677.201111,218.719559 675.234009,218.933868 674.068542,222.685699 
	C673.414490,224.791245 673.903320,227.312820 671.623779,229.773651 
	C670.681641,223.360107 666.487366,224.037262 662.274414,224.850693 
	C660.614197,219.197739 657.662537,215.744110 651.358398,217.326462 
	C649.770020,217.725128 648.822083,216.626389 648.314575,215.318054 
	C647.244080,212.558548 645.622192,212.467743 643.219849,213.759735 
	C641.278870,214.803604 638.398987,215.637238 637.908508,212.602051 
	C636.211914,202.104401 623.718445,201.073593 620.445068,192.114487 
	C620.400818,191.993515 620.181091,191.909363 620.026672,191.859909 
	C613.414062,189.742630 608.741272,184.916962 603.903992,180.320801 
	C597.812866,185.699554 596.564331,185.282166 594.020142,177.135284 
	C592.776733,173.153641 591.196960,168.729797 587.966064,166.581894 
	C584.290161,164.138184 581.853394,161.139771 579.707092,157.627472 
	C577.412354,153.872375 573.904297,154.079895 571.922119,156.754135 
	C568.734863,161.054276 563.379700,163.895920 562.604004,169.954498 
	C562.321411,172.161713 560.412842,174.291946 558.525940,173.154373 
	C554.771057,170.890564 553.077820,173.435532 550.929932,175.312393 
	C549.054993,176.950729 547.554199,179.461960 545.399841,180.246155 
	C540.424683,182.057083 539.176025,185.824371 538.678711,190.314636 
	C537.740845,198.782944 533.166016,204.250290 525.044861,206.646988 
	C522.291138,207.459641 521.050903,209.166794 519.498047,211.576630 
	C517.286438,215.008743 515.496887,219.374161 509.311432,219.097977 
	C505.764160,218.939590 501.509064,218.392563 497.597015,220.934875 
	C493.443298,223.634201 490.556976,227.157578 487.773224,231.325394 
	C483.019745,226.673813 480.091156,230.325333 477.081390,233.144257 
	C475.886780,234.263138 475.254852,236.342651 473.559113,236.521057 
	C468.499390,237.053391 463.757385,239.536255 458.473755,238.728943 
	C453.744263,238.006287 450.533264,239.926163 448.119385,244.274124 
	C444.353516,251.057281 439.866486,252.112045 432.943817,248.566116 
	C425.996399,245.007538 419.317230,245.811371 412.382599,249.459763 
	C410.986115,248.439529 410.327881,246.277878 408.499420,244.950043 
	C404.595184,242.114792 404.068451,242.155273 402.354858,246.701965 
	C401.574646,248.771957 401.811676,251.410141 398.633209,253.053040 
	C396.372833,248.978271 395.099548,244.136856 388.568787,243.945084 
	C381.778259,243.745667 381.319397,249.758972 377.256653,252.380981 
	C372.643921,251.470108 373.252167,251.974472 369.927002,255.984497 
	C365.798737,260.963043 360.103882,264.568115 356.452148,270.130951 
	C356.027710,270.777527 354.560791,270.658417 353.691284,271.112671 
	C352.280670,271.849609 351.263977,272.892120 352.121307,274.666809 
	C352.474030,274.816223 352.818665,275.112030 353.066711,275.045868 
	C368.647003,270.888397 384.601166,270.044067 400.606171,269.636169 
	C401.781830,269.606232 403.266266,269.658295 403.797668,268.573914 
	C407.304993,261.417145 414.025940,263.583099 419.526825,262.355133 
	C423.220184,270.732910 426.677582,271.840515 433.526917,266.892700 
	C436.508118,264.739136 439.561646,263.672638 443.215942,263.562958 
	C448.205597,263.413269 453.192657,262.953644 458.162933,262.450195 
	C462.819824,261.978455 466.146240,259.998260 465.893799,254.594254 
	C465.838409,253.408218 465.795807,252.048737 466.897797,251.409729 
	C470.870026,249.106262 475.279175,249.351334 479.559906,249.920227 
	C483.003387,250.377869 482.388733,254.068680 483.494293,256.281464 
	C484.653290,258.601227 482.757690,260.699493 481.658722,262.717102 
	C479.083313,267.445374 480.432892,277.874664 484.190399,281.512054 
	C486.128143,283.387848 488.377747,283.923584 491.086853,283.199799 
	C496.877991,281.652588 501.850891,278.812195 506.471161,273.967072 
z"/>
</svg>