<svg version="1.1" id="Layer_1" xmlns="http://www.w3.org/2000/svg" xmlns:xlink="http://www.w3.org/1999/xlink" x="0px" y="0px"
	 width="100%" viewBox="0 0 1024 576" enable-background="new 0 0 1024 576" xml:space="preserve">
<path fill="#000000" opacity="1.000000" stroke="none" 
	d="
M1025.000000,119.531342 
	C1022.436035,118.944679 1019.737610,119.320564 1017.091187,119.320381 
	C685.199402,119.297180 353.307617,119.290535 21.415840,119.277328 
	C14.918632,119.277069 8.421426,119.209450 1.462109,119.086632 
	C1.000000,79.666626 1.000000,40.333260 1.000000,1.000000 
	C6.764000,1.000000 12.412292,1.000000 18.291723,1.260786 
	C11.475170,15.789725 13.004321,22.295589 22.067413,31.719442 
	C27.253036,37.111485 32.102505,42.816467 37.942822,47.562244 
	C48.366898,56.032722 57.434875,66.330536 70.253487,71.561287 
	C81.208015,76.031395 92.618996,79.105995 103.849823,82.730865 
	C113.943886,85.988838 123.943115,87.345253 134.274841,86.754303 
	C152.694061,85.700745 171.104691,85.275627 189.449600,82.220360 
	C219.333481,77.243317 249.716965,76.342445 279.819641,72.997040 
	C300.730621,70.673141 321.376526,67.424934 341.165131,59.817089 
	C354.575592,54.661366 368.646545,53.234947 382.931000,53.961285 
	C388.750336,54.257187 394.264557,56.111996 398.372070,60.221458 
	C403.608185,65.460098 409.810455,68.730591 416.600098,71.188667 
	C421.495728,72.961037 425.754333,75.843239 430.200714,78.476967 
	C437.197266,82.621208 444.898163,84.132240 453.164124,83.209740 
	C463.877350,82.014145 470.366089,75.272568 475.916138,67.031067 
	C477.470703,64.722595 477.876892,62.272655 477.491516,59.437160 
	C476.961700,55.539021 475.419281,51.611141 476.962463,47.621792 
	C479.738953,40.444221 482.812592,33.583984 489.215637,28.571493 
	C492.517670,25.986574 495.583649,22.628313 495.390625,17.693586 
	C495.042267,8.788347 496.908447,5.907831 505.186981,2.529071 
	C503.337158,1.983759 501.668579,1.491874 500.000000,0.999994 
	C510.687561,1.000000 521.375122,1.000000 532.213623,1.169503 
	C531.396118,1.544075 530.428162,1.750831 529.459290,1.953679 
	C528.670593,2.118808 527.880920,2.279279 527.091675,2.441816 
	C534.803162,3.445122 540.873535,6.000096 544.387512,13.531608 
	C548.917114,23.240023 559.833435,27.721672 570.184082,24.578812 
	C572.825562,23.776766 576.093140,22.579100 575.011353,18.884773 
	C573.903076,15.099788 575.888306,12.749593 578.411621,11.449257 
	C582.888855,9.142082 585.838013,4.921033 590.862915,2.798805 
	C589.280823,2.062087 588.140381,1.531048 587.000000,1.000005 
	C608.020874,1.000000 629.041809,1.000000 650.324219,1.166748 
	C649.905029,1.941613 648.425232,2.533427 649.671753,3.565257 
	C652.459167,5.872566 653.509460,9.165619 654.152283,12.297473 
	C655.791565,20.284077 661.125366,24.911026 667.667419,28.647736 
	C670.268372,30.133352 672.974365,31.437126 675.649292,32.790665 
	C686.667847,38.366196 696.527954,45.251442 702.584656,56.471848 
	C704.482239,59.987217 706.034912,63.998020 709.695557,65.931038 
	C720.562317,71.669250 730.817688,78.795853 742.729919,82.272270 
	C759.133118,87.059311 775.959290,88.847717 793.064758,88.111458 
	C799.046387,87.854004 805.119324,87.562378 811.030396,88.278282 
	C822.728699,89.695076 834.351868,89.121857 845.892761,87.549698 
	C854.643616,86.357628 863.529114,84.239418 870.482605,78.487816 
	C888.834656,63.308033 910.083252,57.363140 933.439270,57.025112 
	C955.703369,56.702888 977.512573,53.252453 998.896423,46.954571 
	C1006.768127,44.636208 1013.643372,40.908028 1019.351929,35.027973 
	C1020.989746,33.340954 1022.763672,31.846796 1025.000000,31.000000 
	C1025.000000,60.354229 1025.000000,89.708458 1025.000000,119.531342 
z"/>
<path fill="#000000" opacity="1.000000" stroke="none" 
	d="
M601.577942,221.175720 
	C603.786804,225.148849 608.230469,225.950500 610.689880,229.292542 
	C614.960449,235.095764 618.071106,241.572098 620.612305,248.116562 
	C623.373047,255.226395 629.097595,259.524811 634.589783,263.016998 
	C639.084045,265.874695 642.979675,269.922241 648.151611,271.770874 
	C653.174744,273.566315 657.495422,276.425171 661.820862,279.573120 
	C664.159119,281.274872 665.701904,283.565247 668.255249,285.420715 
	C671.290955,283.348267 673.939575,284.411499 676.811157,286.624207 
	C679.596558,288.770508 683.402405,288.234589 686.524414,287.790619 
	C692.089050,286.999329 696.018372,289.481293 699.346802,293.023010 
	C702.850159,296.750916 706.227600,300.790955 708.705811,305.227600 
	C710.717712,308.829193 713.277283,310.717621 717.027649,311.554626 
	C720.441040,312.316437 723.673279,313.379883 725.495789,316.600342 
	C724.841614,317.988922 723.766296,317.959808 722.797363,317.935547 
	C709.311462,317.598236 695.754272,317.958710 682.364197,316.634705 
	C671.876404,315.597687 661.446350,315.320465 650.974426,315.374359 
	C641.327637,315.423981 631.979004,314.572113 622.777649,311.144867 
	C611.880920,307.086151 600.308167,307.656494 588.884338,307.893341 
	C587.078796,307.930756 585.510132,307.591797 584.311707,306.363708 
	C580.287109,302.239441 575.250488,302.296936 569.984863,302.256592 
	C559.164307,302.173645 549.255493,298.678558 540.000122,293.191467 
	C537.045837,291.439972 536.372986,289.428070 538.165588,286.205292 
	C541.103210,280.923828 541.966492,274.874786 543.694397,269.146729 
	C544.126343,267.714691 544.019226,265.907745 544.873779,264.849915 
	C550.369202,258.047394 544.655762,253.358154 541.852417,248.207809 
	C538.871033,242.730316 533.619934,244.592331 529.449524,245.519592 
	C523.909607,246.751389 519.091675,249.914551 515.380859,254.483612 
	C513.676575,256.582092 513.279114,258.688690 514.997925,260.811371 
	C517.680115,264.123779 520.521240,267.307617 523.695740,271.013733 
	C526.925842,261.728058 533.866455,267.281158 539.203796,266.082611 
	C536.839844,271.864594 532.765198,275.777100 527.099182,277.728790 
	C523.644470,278.918732 520.101196,276.289764 518.871094,272.301361 
	C517.458679,267.722107 516.189697,267.215698 512.365784,270.169159 
	C509.741730,272.195923 507.373657,274.561218 504.946289,276.834106 
	C500.958069,280.568390 496.328735,283.123657 490.988342,284.213837 
	C485.924530,285.247559 482.122650,283.131592 481.260559,278.133331 
	C480.709351,274.937500 478.190460,272.519043 478.386047,269.219910 
	C478.543976,266.555878 478.988403,264.070679 480.884491,261.855316 
	C483.706451,258.558105 482.768158,254.941330 480.604797,251.739822 
	C479.615021,250.275040 469.367706,251.095779 468.057465,252.424469 
	C467.138641,253.356262 467.294037,254.551025 467.140350,255.695435 
	C466.492462,260.518372 463.733704,262.687469 458.857819,263.390900 
	C451.308350,264.480072 443.528137,263.651184 436.158813,266.156891 
	C435.574219,266.355652 434.500824,266.498047 434.287476,266.205353 
	C428.924835,258.847076 421.982391,264.564972 415.832642,264.016449 
	C413.940552,263.847656 411.966492,265.019257 409.999725,265.162781 
	C407.367706,265.354858 406.135040,266.595428 405.757294,269.125061 
	C405.104309,273.497772 402.868256,275.176056 398.075287,275.591278 
	C391.055115,276.199402 383.799713,276.065552 377.039459,278.983307 
	C375.182709,279.784760 372.767609,279.397186 370.610565,279.375183 
	C366.885193,279.337219 363.596161,280.004791 360.257294,282.139648 
	C356.325409,284.653717 351.607025,283.203674 346.065247,283.004486 
	C349.358093,277.825592 348.311432,270.913696 355.659088,269.256378 
	C355.957489,269.189087 356.372162,268.938019 356.448364,268.686493 
	C358.583282,261.639160 366.403229,259.570923 369.703827,253.516800 
	C370.914490,251.296127 372.483154,249.847198 375.674164,250.279907 
	C378.515747,250.665268 379.988739,247.491211 381.562958,245.616623 
	C385.681610,240.712082 394.573547,241.516495 397.249664,247.383881 
	C397.788727,248.565750 397.869904,249.998932 399.499664,250.551712 
	C401.063171,248.298111 401.062195,245.510925 402.101227,243.113129 
	C403.162262,240.664658 404.906952,239.533356 407.056610,241.781113 
	C408.981323,243.793671 411.931427,244.821594 412.726990,248.766708 
	C415.135681,244.997360 417.661377,245.230667 421.198669,244.991409 
	C427.396423,244.572159 431.794464,247.143509 437.008087,248.809082 
	C439.697845,249.668350 444.346191,249.741272 446.268829,245.240356 
	C447.169708,243.131348 448.768066,241.326065 449.994171,239.348328 
	C450.979889,237.758224 452.307678,237.068115 454.186493,237.352692 
	C460.247742,238.270782 465.995941,236.407349 471.849548,235.385132 
	C475.061707,234.824203 476.178223,231.879700 478.193665,230.058517 
	C481.125488,227.409348 483.667145,225.809402 487.483429,229.371338 
	C490.165985,222.526321 496.843475,220.536896 501.418701,216.163132 
	C509.164368,220.406097 515.850525,217.096405 518.794983,209.408722 
	C519.457031,207.680252 520.039673,206.149384 522.332642,205.749161 
	C531.401733,204.166260 536.611755,198.828690 537.670532,189.537659 
	C538.211853,184.786957 539.238220,180.539474 544.929871,178.865082 
	C547.210022,178.194290 549.097717,175.612061 550.766479,173.574326 
	C553.312561,170.465210 556.052795,169.217026 559.709534,171.754532 
	C563.891663,163.410034 568.202087,155.628418 576.940796,152.521866 
	C579.119751,153.097626 579.403564,154.555222 580.095703,155.643738 
	C582.302795,159.114960 584.369568,162.398956 588.216736,164.742371 
	C591.831055,166.943985 593.253540,171.562927 594.920227,175.519775 
	C595.748657,177.486526 596.170105,179.624710 596.804321,181.783066 
	C599.181580,182.189117 600.597717,181.044144 601.952759,179.446365 
	C603.245300,177.922180 604.884705,177.685806 606.148376,179.463089 
	C609.816650,184.622269 614.531189,188.373199 620.495361,190.517624 
	C621.682495,190.944443 622.600525,191.733948 622.923706,192.866898 
	C624.206848,197.364410 627.787537,199.322266 631.618835,201.105545 
	C635.376099,202.854340 637.210266,206.311020 638.156311,209.961731 
	C639.074768,213.506363 640.483643,214.127213 643.299377,212.105957 
	C646.173462,210.042786 648.239380,210.419205 649.322266,213.959045 
	C649.739929,215.324234 650.612427,215.782364 651.955078,215.642975 
	C657.601074,215.056946 661.664856,216.964340 662.948730,222.986984 
	C666.189209,223.101059 669.764160,220.556198 672.062256,225.829636 
	C672.412537,223.938995 672.587402,223.179214 672.689026,222.409760 
	C672.929260,220.590714 672.949707,218.549774 675.132935,217.934845 
	C677.212708,217.349060 679.044922,218.171173 680.624207,219.592163 
	C684.792419,223.342499 688.972778,227.079376 693.397095,231.044662 
	C697.411316,227.550858 699.416870,230.115891 701.665405,233.632111 
	C706.041504,240.475479 712.136658,242.646942 720.284424,240.893524 
	C721.257629,240.684082 722.612549,240.119812 723.191406,240.541855 
	C728.000122,244.047958 734.745056,242.819412 739.135437,247.710846 
	C744.780823,254.000366 752.695312,255.593430 760.752441,256.058411 
	C763.172180,256.198090 765.295044,256.934845 767.444763,257.752106 
	C774.994934,260.622528 782.679077,261.277100 790.802368,261.058655 
	C798.168579,260.860535 805.613281,262.721954 812.987488,263.900116 
	C822.353455,265.396606 831.680115,267.137268 841.030640,268.732117 
	C843.199768,269.102081 845.275574,269.703583 847.051208,271.001617 
	C850.311157,273.384827 851.193787,276.688690 849.710205,280.291138 
	C848.297913,283.720428 845.314636,285.558563 841.651367,284.804352 
	C825.020142,281.379944 808.062256,280.269928 791.273926,278.201111 
	C780.746155,276.903748 770.274963,275.505951 760.023865,273.066620 
	C748.541260,270.334229 736.953918,268.285583 725.425293,265.904724 
	C715.820435,263.921143 706.292908,261.883789 696.528137,260.953949 
	C695.243408,260.831635 693.634277,260.500519 692.817505,259.649719 
	C686.039124,252.588623 676.435608,253.199768 668.108826,250.420013 
	C663.545410,248.896561 658.717712,248.182510 654.089172,246.829971 
	C651.065186,245.946304 648.002380,244.773010 647.422913,240.904495 
	C648.749817,239.935303 649.519714,241.417709 650.569519,241.541611 
	C651.947815,241.704285 653.291260,241.858093 654.202576,240.589706 
	C655.202026,239.198639 654.271790,238.130905 653.466370,237.023575 
	C649.298584,231.293533 647.060791,230.438370 639.890991,232.416626 
	C637.440308,233.092819 636.277161,232.255280 636.149902,229.982391 
	C635.861450,224.833115 632.644714,222.469254 628.230835,220.888504 
	C622.117676,218.699112 616.160095,216.054398 609.993164,214.042007 
	C604.028687,212.095673 601.185852,214.548813 601.577942,221.175720 
M589.316772,240.088470 
	C589.041199,239.306152 588.803406,238.507996 588.483521,237.744232 
	C587.117920,234.484314 584.832153,232.411362 581.145142,233.309174 
	C577.248169,234.258133 576.736816,237.490097 577.160400,240.826324 
	C577.407349,242.771088 578.231628,244.637344 578.719055,246.558472 
	C579.095276,248.041016 580.567810,249.425110 579.296753,251.108398 
	C572.292786,250.462952 568.449524,254.097336 570.716736,259.621582 
	C573.168945,265.596466 576.247803,271.322815 579.220886,277.070862 
	C580.363037,279.279022 582.461609,280.444061 585.021057,280.196014 
	C587.602234,279.945862 589.273132,278.472656 589.854553,275.888275 
	C590.246948,274.143799 590.990784,273.094604 593.049988,272.708923 
	C599.780334,271.448364 601.471252,268.532776 598.936035,262.247559 
	C596.020386,255.019409 592.732483,247.941422 589.316772,240.088470 
M570.850891,206.369003 
	C571.178040,204.240356 571.842896,202.098175 571.758179,199.986038 
	C571.607971,196.239853 568.733032,194.393188 565.594788,193.781631 
	C562.446899,193.168213 562.175720,196.255020 561.484924,198.399826 
	C559.246399,205.349442 557.547119,212.480026 554.250305,219.070160 
	C553.604553,220.361084 553.298523,221.913712 553.204102,223.369553 
	C553.009827,226.365112 554.276794,228.433121 557.371948,229.283432 
	C560.432068,230.124100 562.003113,228.530060 563.360657,226.162827 
	C566.776794,220.205795 569.187500,213.871887 570.850891,206.369003 
z"/>
</svg>