<?xml version="1.0" standalone="no"?>
<!DOCTYPE svg PUBLIC "-//W3C//DTD SVG 20010904//EN"
 "http://www.w3.org/TR/2001/REC-SVG-20010904/DTD/svg10.dtd">
<svg version="1.0" xmlns="http://www.w3.org/2000/svg"
 width="5120.000000pt" height="2880.000000pt" viewBox="0 0 5120.000000 2880.000000"
 preserveAspectRatio="xMidYMid meet">

<g transform="translate(0.000000,2880.000000) scale(0.100000,-0.100000)"
fill="#000000" stroke="none">
<path d="M0 11460 l0 -11460 25600 0 25600 0 0 11460 0 11460 -25600 0 -25600
0 0 -11460z m28840 9740 c24 -17 48 -69 42 -92 -1 -4 12 -18 29 -32 17 -15 35
-43 41 -64 6 -20 26 -54 44 -75 19 -20 34 -43 34 -51 0 -7 11 -30 25 -50 14
-20 25 -41 25 -46 0 -5 20 -28 45 -51 25 -23 48 -53 51 -66 8 -32 47 -73 69
-73 9 0 28 9 42 20 33 26 39 25 55 -7 7 -15 26 -34 41 -41 16 -8 31 -21 34
-30 3 -10 17 -29 31 -44 14 -15 22 -33 19 -42 -3 -8 -2 -18 3 -21 15 -9 39
-65 45 -104 4 -20 11 -48 17 -62 9 -26 11 -26 36 -13 36 18 42 18 42 -5 0 -11
5 -23 10 -26 6 -4 10 -14 9 -23 -3 -26 11 -70 27 -83 9 -7 14 -31 14 -62 0
-38 5 -56 22 -74 23 -25 40 -107 25 -122 -6 -6 -3 -21 7 -42 9 -18 16 -38 16
-45 0 -6 16 -31 35 -54 19 -23 35 -48 35 -56 0 -8 4 -14 8 -14 13 0 78 72 95
104 l14 30 14 -25 c7 -13 18 -33 24 -43 5 -11 15 -21 20 -23 12 -3 35 43 35
71 0 39 42 106 85 136 24 17 50 30 58 30 9 0 33 -17 54 -37 42 -41 63 -98 63
-172 0 -29 5 -43 19 -50 10 -6 24 -24 31 -41 7 -16 16 -30 20 -30 5 0 14 -2
22 -5 7 -3 17 5 23 17 11 25 51 36 68 19 6 -6 17 -11 24 -11 14 0 83 -69 83
-82 0 -4 6 -8 13 -8 14 0 77 -57 77 -69 -1 -3 -5 -25 -9 -48 -9 -48 -16 -45
96 -46 52 0 53 -1 70 -39 9 -21 20 -38 23 -38 4 0 17 11 30 25 28 30 41 31 64
6 10 -11 32 -23 50 -27 40 -8 76 -41 76 -69 0 -12 9 -30 20 -40 13 -12 20 -31
20 -56 0 -24 6 -43 18 -51 21 -16 39 -52 47 -98 3 -19 12 -43 20 -54 13 -17
16 -17 44 -3 33 17 38 14 137 -83 45 -44 100 -71 154 -75 78 -5 99 -21 143
-110 22 -44 44 -87 49 -95 33 -56 45 -70 64 -70 32 0 44 -20 44 -71 0 -26 5
-51 10 -54 6 -3 10 -23 10 -43 1 -62 23 -127 57 -165 36 -41 45 -44 63 -22 7
8 23 15 35 15 42 0 109 37 172 94 52 48 67 56 100 56 68 0 122 -78 124 -179 1
-50 6 -64 26 -83 14 -13 29 -33 34 -46 10 -26 26 -21 39 12 9 24 54 33 76 15
16 -13 34 -4 34 18 0 9 7 24 16 34 15 17 18 17 52 -3 21 -11 43 -25 51 -31 7
-6 26 -10 42 -9 22 3 31 -3 44 -27 19 -37 28 -38 48 -8 15 21 16 22 44 5 15
-10 43 -25 61 -33 33 -16 38 -24 23 -40 -13 -14 6 -56 28 -62 15 -4 19 -17 24
-70 2 -36 10 -70 16 -76 6 -6 11 -25 11 -42 0 -19 8 -39 20 -50 20 -18 21 -18
58 18 42 41 75 47 104 20 25 -22 47 -9 71 40 13 27 23 37 41 37 13 0 26 -6 29
-14 3 -8 18 -16 34 -18 19 -2 27 -8 25 -19 -3 -21 33 -103 53 -119 9 -7 15
-29 15 -51 0 -21 5 -41 10 -44 6 -3 10 -30 10 -59 0 -34 5 -58 14 -65 12 -10
15 2 21 76 4 48 13 97 20 108 7 11 16 62 20 113 4 50 11 94 15 97 4 2 5 26 2
53 -2 31 0 52 7 56 6 4 11 18 11 31 0 57 120 92 151 44 13 -18 17 -19 41 -8
25 11 31 9 78 -27 28 -21 53 -37 56 -34 3 3 20 -24 38 -60 51 -101 56 -107 83
-102 17 3 29 -2 39 -16 9 -13 21 -18 35 -15 32 9 89 -52 86 -91 -2 -27 2 -31
44 -43 36 -11 50 -21 68 -53 29 -52 39 -57 51 -24 10 26 12 27 28 10 9 -9 17
-31 17 -49 0 -24 6 -35 23 -42 12 -5 22 -13 22 -17 0 -5 9 -8 20 -8 14 0 20
-7 20 -23 0 -13 10 -32 21 -43 12 -10 28 -34 36 -51 7 -18 19 -33 26 -33 11 0
47 68 47 90 0 6 18 10 40 10 26 0 40 4 40 13 0 7 13 26 29 41 37 36 67 30 101
-20 14 -20 37 -50 53 -66 15 -16 27 -36 27 -43 0 -8 5 -17 10 -20 6 -4 17 -23
25 -43 9 -20 26 -46 39 -57 28 -25 136 -161 136 -172 0 -5 14 -25 31 -46 24
-29 38 -37 64 -37 18 0 38 7 45 15 18 22 55 18 87 -9 15 -13 37 -25 48 -27 11
-3 26 -16 33 -31 16 -35 68 -74 107 -81 40 -8 152 10 192 31 27 13 36 14 60 3
15 -7 30 -12 33 -11 2 1 7 -7 11 -17 7 -16 8 -16 8 -1 1 27 39 45 116 59 39 7
77 18 86 26 22 19 42 16 57 -7 7 -11 21 -20 33 -20 11 0 59 -30 106 -67 73
-57 92 -67 120 -64 34 3 96 -27 111 -55 6 -11 15 -8 42 16 42 35 67 37 117 8
21 -13 51 -30 67 -38 16 -8 37 -28 45 -45 41 -75 58 -89 145 -119 12 -4 16
-12 12 -22 -7 -17 41 -90 52 -80 3 3 13 0 21 -8 9 -8 37 -16 61 -18 42 -3 45
-5 48 -33 5 -41 19 -55 57 -55 17 0 47 -8 66 -17 44 -23 191 -63 464 -127 61
-14 133 -32 161 -40 37 -10 63 -12 90 -5 59 13 130 11 143 -5 6 -7 37 -16 69
-19 31 -2 76 -12 98 -21 41 -17 41 -17 46 -79 13 -154 110 -234 331 -272 50
-9 135 -27 187 -40 52 -13 167 -37 255 -54 159 -30 426 -87 540 -116 65 -17
362 -79 825 -175 162 -33 394 -85 515 -115 121 -29 301 -72 400 -95 99 -23
221 -53 270 -66 237 -66 576 -146 670 -158 l79 -11 -37 -41 c-20 -23 -65 -56
-99 -74 -54 -29 -75 -35 -148 -38 -72 -3 -96 0 -157 21 -40 14 -98 28 -130 32
-32 4 -127 20 -210 36 -84 16 -167 29 -185 29 -18 0 -69 8 -113 18 -70 16 -86
16 -125 4 -51 -15 -182 -10 -320 13 -47 7 -134 19 -195 25 -60 6 -148 18 -195
27 -47 8 -119 22 -160 29 -41 8 -136 21 -210 29 -74 8 -171 22 -215 30 -44 9
-127 22 -185 30 -58 8 -141 22 -186 30 -103 19 -152 19 -222 -1 -64 -19 -173
-15 -269 10 -149 39 -467 106 -548 115 -176 21 -287 40 -348 59 -58 19 -215
56 -337 81 -30 6 -73 22 -95 36 -65 40 -81 44 -205 60 -65 9 -163 27 -217 41
-54 14 -134 29 -178 35 -44 6 -157 28 -251 50 -94 21 -192 39 -217 39 -25 0
-81 11 -124 25 -65 21 -98 25 -199 25 -108 0 -123 2 -139 20 -14 16 -31 20
-81 20 -56 0 -67 3 -97 30 -37 32 -139 60 -220 60 -23 0 -107 14 -187 31 -80
17 -194 35 -255 40 -60 5 -153 18 -205 29 -52 10 -165 24 -250 29 -173 12
-234 26 -302 71 -50 33 -84 73 -116 137 -23 45 -30 48 -157 78 -38 9 -99 25
-135 35 -36 10 -90 23 -120 30 -30 6 -100 25 -155 40 -55 16 -154 43 -220 59
-66 17 -154 39 -195 50 -41 10 -104 24 -140 30 -36 7 -108 25 -160 41 -52 16
-117 32 -145 36 -27 3 -77 15 -110 25 -33 10 -96 25 -140 34 -86 18 -115 30
-115 46 0 6 -23 40 -51 76 -52 64 -141 138 -276 228 -50 32 -73 54 -73 68 0
15 -5 18 -21 14 -13 -4 -84 27 -212 93 -298 153 -431 200 -1102 392 -336 96
-366 103 -450 103 -101 0 -153 -18 -216 -73 -81 -71 -109 -206 -61 -303 24
-49 36 -64 120 -142 30 -28 67 -79 92 -125 47 -87 77 -121 173 -199 37 -29 67
-61 67 -69 0 -9 -18 -36 -39 -61 -123 -139 -84 -323 94 -438 48 -31 281 -144
507 -246 123 -55 301 -145 338 -169 38 -27 170 -79 215 -86 22 -3 53 -12 69
-20 16 -8 34 -14 41 -14 11 0 56 -19 94 -39 8 -4 19 -16 25 -27 6 -10 17 -23
24 -27 6 -4 12 -15 12 -24 0 -9 11 -31 26 -50 21 -27 30 -32 51 -27 34 9 54
-16 43 -54 -4 -15 -3 -38 1 -50 8 -20 13 -23 41 -17 18 4 38 11 43 15 6 4 26
10 46 13 31 4 37 2 47 -21 38 -84 59 -105 105 -104 17 0 48 -9 69 -20 42 -24
57 -18 81 31 16 34 40 38 54 9 25 -54 32 -75 38 -105 4 -18 12 -34 18 -34 7
-1 30 -2 52 -3 31 -1 42 -6 50 -23 10 -23 32 -34 75 -36 18 -2 25 -8 25 -23 0
-11 7 -29 15 -39 8 -10 19 -32 25 -49 14 -42 50 -58 99 -45 21 6 45 7 54 3 10
-4 23 -6 30 -5 6 1 16 -8 21 -21 5 -13 21 -40 35 -61 15 -21 24 -42 21 -47 -3
-5 7 -16 22 -24 39 -20 65 -51 67 -79 1 -22 9 -27 65 -40 l63 -16 25 30 c14
16 31 29 38 29 8 0 20 12 27 27 22 44 40 49 81 22 20 -13 37 -32 37 -41 0 -10
10 -23 23 -29 12 -6 32 -24 44 -39 16 -20 29 -27 43 -23 14 4 34 -5 58 -24 54
-43 58 -44 85 -32 18 8 32 7 62 -5 20 -9 50 -16 66 -16 21 0 29 -5 29 -17 0
-13 9 -9 35 17 33 32 35 33 54 16 25 -23 233 -35 257 -15 19 16 187 16 192 0
2 -6 12 -11 21 -11 17 0 190 -137 220 -173 7 -9 18 -17 23 -17 35 0 218 -206
263 -296 28 -57 129 -174 150 -174 8 0 19 -10 26 -22 6 -13 24 -36 38 -53 15
-16 33 -50 40 -75 20 -69 23 -75 74 -141 20 -28 27 -48 27 -83 l0 -46 54 0
c35 0 58 -5 66 -15 7 -9 29 -15 51 -15 21 0 41 -4 44 -10 14 -22 73 -40 130
-38 51 1 70 -4 120 -31 33 -18 69 -40 80 -49 30 -25 63 -42 82 -42 10 -1 51
-32 92 -71 l74 -70 -524 6 c-288 3 -553 10 -589 15 -89 12 -293 20 -829 30
-447 9 -454 9 -477 31 -22 21 -33 22 -351 30 -180 4 -485 8 -678 9 -491 1
-933 16 -952 32 -11 8 -74 14 -203 18 -160 4 -191 8 -207 23 -11 9 -24 17 -29
17 -5 0 -33 24 -63 54 l-53 53 -100 6 c-83 4 -104 9 -122 26 -20 19 -34 21
-152 21 l-130 0 -49 50 -49 50 -86 0 c-55 0 -90 4 -98 13 -10 9 -132 14 -505
18 -511 7 -693 4 -715 -14 -10 -8 -28 4 -70 46 -32 32 -65 57 -73 57 -9 0 -24
9 -34 20 -10 11 -23 20 -29 20 -6 0 -46 32 -89 70 l-78 70 -384 0 c-211 0
-386 4 -389 9 -3 4 -35 11 -72 14 -53 4 -71 10 -93 31 -22 22 -36 26 -82 26
-33 0 -63 6 -75 15 -10 8 -31 15 -45 15 -14 0 -36 11 -49 25 -13 14 -31 25
-40 25 -9 0 -31 16 -50 35 l-34 35 -132 0 c-105 0 -134 3 -144 15 -7 8 -22 15
-34 15 -12 0 -31 7 -42 15 -10 8 -29 15 -40 15 -12 0 -27 7 -34 15 -7 8 -18
15 -24 15 -6 0 -38 27 -71 60 -42 43 -67 60 -85 60 -17 0 -38 13 -61 36 -18
20 -60 55 -91 79 -46 35 -55 45 -44 54 8 7 24 35 36 64 13 28 33 65 45 82 22
28 85 178 85 201 0 5 11 39 26 75 14 35 30 89 35 119 6 30 19 84 31 120 21 68
40 137 63 230 7 30 25 100 40 155 45 167 49 150 -39 149 l-75 -1 -63 -60 c-35
-34 -81 -76 -103 -95 -22 -19 -67 -61 -100 -94 -157 -155 -359 -303 -452 -330
-114 -33 -251 -1 -340 80 -22 19 -55 64 -74 98 -32 59 -34 69 -34 160 l0 98
-32 0 c-18 0 -62 9 -97 21 l-64 21 -34 -30 c-18 -17 -68 -55 -111 -86 -136
-97 -168 -124 -219 -183 -28 -32 -69 -74 -91 -93 -23 -19 -69 -61 -104 -93
-121 -111 -333 -230 -493 -277 -230 -68 -269 -72 -369 -41 -159 49 -260 199
-248 368 5 66 3 74 -17 90 -73 59 -126 176 -126 276 0 29 11 82 24 120 l23 67
-26 0 c-24 0 -23 2 21 48 53 54 105 128 142 204 15 29 30 60 35 68 5 8 14 37
20 63 11 48 11 50 -20 85 -49 55 -72 117 -77 205 l-5 77 -258 0 c-161 0 -260
-4 -264 -10 -3 -5 -24 -10 -45 -10 -21 0 -42 -4 -45 -10 -3 -5 -23 -10 -44
-10 -29 0 -44 -7 -69 -33 l-31 -32 15 -50 c21 -68 15 -194 -13 -257 -26 -57
-93 -131 -147 -163 -57 -33 -106 -44 -226 -50 -57 -4 -107 -8 -112 -11 -22
-14 -261 -34 -399 -34 -92 0 -169 -5 -186 -11 -15 -6 -86 -15 -158 -20 -197
-13 -231 -22 -291 -79 -50 -47 -209 -155 -296 -202 -37 -20 -58 -23 -148 -23
-100 0 -108 1 -168 34 -116 63 -181 165 -190 298 -3 51 -9 73 -18 73 -7 0 -16
-4 -19 -10 -3 -5 -19 -10 -34 -10 -15 0 -31 -4 -37 -9 -5 -6 -62 -13 -126 -17
-96 -6 -121 -10 -134 -25 -10 -11 -25 -19 -34 -19 -9 0 -21 -5 -27 -11 -5 -5
-59 -12 -118 -14 l-107 -3 -39 -38 -39 -38 0 -112 c0 -135 -5 -143 -77 -121
-83 27 -151 28 -333 7 -134 -15 -242 -20 -460 -20 -157 0 -323 -4 -370 -10
-642 -69 -684 -75 -1064 -161 -240 -53 -318 -83 -380 -145 -56 -56 -80 -115
-80 -196 l0 -68 -78 0 c-75 0 -78 1 -78 24 0 13 10 36 21 50 35 44 77 133 84
179 9 52 28 91 71 140 24 29 34 52 39 90 8 65 24 107 40 107 7 0 18 7 25 15 7
8 23 15 36 15 12 0 26 5 29 10 3 6 38 10 77 10 79 0 83 3 118 78 12 23 43 65
70 92 28 28 50 59 50 70 0 25 17 56 53 96 21 24 30 45 34 87 5 45 13 65 40 97
32 37 38 40 72 34 20 -4 42 -11 50 -17 7 -6 23 -16 34 -22 12 -6 27 -22 34
-35 8 -16 13 -19 13 -9 0 9 6 22 14 28 7 6 16 27 19 46 6 36 64 124 83 125 19
0 57 47 44 55 -17 10 -3 73 23 107 55 72 80 98 96 98 10 0 30 14 46 30 16 17
39 30 51 30 24 0 166 -117 180 -148 5 -11 10 12 15 63 9 100 27 156 56 171 13
6 31 18 41 27 11 10 35 17 60 17 l42 0 0 60 0 60 31 0 31 0 -7 49 c-6 45 -4
51 17 64 13 8 47 18 77 21 52 7 55 6 82 -26 22 -27 30 -31 40 -20 20 19 40 15
72 -15 l29 -28 24 31 24 31 70 -18 c38 -9 81 -26 96 -38 15 -12 37 -21 50 -21
24 0 84 -63 84 -90 0 -8 9 -26 20 -40 13 -17 20 -41 20 -76 0 -41 5 -55 25
-74 14 -14 25 -35 25 -50 0 -17 13 -38 35 -60 40 -39 47 -36 65 35 6 22 18 60
26 85 9 25 20 72 26 105 5 33 19 78 29 99 10 22 19 57 19 77 0 21 4 41 10 44
5 3 21 30 35 59 33 70 55 89 91 80 35 -9 144 -115 169 -164 18 -37 44 -70 54
-70 3 0 12 14 20 31 l13 30 24 -32 c13 -18 24 -40 24 -49 0 -8 6 -24 13 -35 8
-11 27 -57 42 -103 l29 -82 33 32 c18 17 33 41 33 52 0 11 20 45 43 75 24 31
47 70 51 86 10 38 34 65 59 65 10 0 42 -20 69 -45 28 -25 56 -45 63 -45 8 0
23 -14 35 -31 l22 -30 22 20 c28 27 58 27 81 1 18 -20 18 -20 47 7 15 15 28
36 28 48 0 30 36 63 52 47 7 -7 20 -12 30 -12 10 0 21 -7 24 -15 4 -10 21 -15
54 -15 41 0 52 -4 74 -30 l25 -31 7 24 c8 35 36 24 76 -29 33 -44 58 -56 58
-29 0 13 3 13 20 3 11 -7 20 -19 20 -26 0 -18 40 -51 63 -52 9 0 17 6 17 14 0
8 5 18 10 21 18 11 40 -16 40 -50 0 -38 15 -45 96 -45 43 0 54 4 79 30 31 32
70 39 107 19 12 -7 55 -13 95 -16 68 -4 73 -2 73 16 0 11 5 23 10 26 6 3 10
14 10 24 0 10 6 24 14 30 25 21 86 132 86 156 0 25 33 55 61 55 13 0 18 13 23
53 6 47 12 56 56 92 41 34 49 46 52 80 l3 40 91 3 c80 2 92 0 109 -18 23 -25
39 -25 75 0 25 18 38 20 97 14 46 -4 75 -13 89 -26 18 -16 24 -17 47 -5 15 8
36 26 48 41 16 21 29 26 64 26 24 0 48 -6 52 -12 4 -7 16 -19 26 -27 16 -12
22 -10 58 19 34 27 47 32 79 27 31 -4 44 1 80 29 59 47 83 51 132 25 50 -26
74 -27 81 -1 3 11 19 25 35 31 27 9 52 44 52 73 0 16 65 78 73 70 4 -4 7 1 8
12 0 10 8 33 18 49 19 32 62 45 86 25 17 -14 45 12 45 42 0 31 106 148 135
148 14 0 41 -18 68 -45 26 -25 55 -45 65 -45 10 0 27 -9 37 -20 10 -11 24 -20
32 -20 7 0 13 -6 13 -13 0 -14 47 -64 53 -56 13 19 37 83 37 99 0 26 34 103
53 118 8 7 20 35 27 61 6 27 22 59 35 71 23 21 26 22 49 7 23 -16 25 -15 77
42 30 32 69 77 87 99 28 36 39 42 71 42 20 0 42 -5 49 -12 9 -9 23 -1 60 33
27 24 52 54 56 66 7 26 59 105 80 122 26 21 38 2 34 -53 l-3 -51 41 -5 c31 -4
48 -13 69 -37 33 -41 44 -41 80 -3 18 18 39 30 55 30 14 0 30 4 36 10 5 5 43
13 84 16 l75 6 43 -37 43 -38 30 29 c17 16 44 58 61 94 36 74 102 168 125 177
9 3 24 1 34 -6 11 -6 30 -9 44 -5 25 6 25 7 25 114 0 92 3 111 20 133 11 14
20 34 20 45 0 11 11 33 24 49 21 24 30 28 61 25 21 -3 39 -12 46 -23 13 -26
32 -24 67 6 18 15 42 25 61 25 18 0 34 6 37 14 3 8 20 17 38 20 18 4 45 20 61
36 16 17 39 30 51 30 13 0 50 23 84 51 57 47 63 50 79 35 16 -15 20 -14 46 14
15 16 37 30 49 32 11 2 25 12 31 23 5 11 22 36 38 56 29 38 33 59 17 75 -13
13 15 106 47 153 13 19 23 49 23 70 0 20 12 59 25 86 20 41 25 65 25 131 0 64
3 83 15 88 8 3 15 16 15 30 0 14 4 27 9 31 5 3 9 29 8 59 -1 37 4 61 16 77 10
13 36 52 58 86 31 47 49 65 72 71 37 10 78 9 95 -2 8 -4 36 14 75 48 34 31 68
56 75 56 6 0 12 7 12 15 0 9 11 27 24 40 13 13 34 38 46 57 43 62 73 88 93 82
20 -6 81 42 72 56 -3 4 4 10 15 13 11 3 20 14 20 25 0 10 9 27 20 37 11 10 20
24 20 32 0 7 11 13 25 13 13 0 43 9 65 21 37 20 42 20 64 5 13 -8 27 -29 31
-45 3 -17 14 -31 26 -34 11 -3 19 -14 19 -26 0 -29 43 -28 104 3 69 35 108 74
96 97 -14 26 -12 50 6 71 13 13 16 35 15 91 -2 69 0 74 29 102 16 16 30 35 30
42 0 7 9 13 19 13 19 0 30 11 94 99 34 47 74 74 125 86 27 6 32 11 33 38 1 18
0 40 -1 51 -2 20 78 108 92 100 4 -3 8 8 8 24 0 22 10 39 35 61 19 17 35 35
35 40 0 5 20 11 45 13 31 2 45 -1 45 -9 0 -13 31 -33 50 -33 6 0 14 8 18 19 6
16 72 98 80 100 2 1 17 -8 32 -19z"/>
</g>
</svg>
